Coordinates
version=1
nRows=16
nColumns=63
inDegrees=yes

Units are S.I. units (second, meters, Newtons, ...)
If the header above contains a line with 'inDegrees', this indicates whether rotational values are in degrees (yes) or radians (no).

endheader
time	pelvis_tilt	pelvis_list	pelvis_rotation	pelvis_tx	pelvis_ty	pelvis_tz	hip_flexion_r	hip_adduction_r	hip_rotation_r	knee_angle_r	knee_angle_r_beta	ankle_angle_r	subtalar_angle_r	mtp_angle_r	hip_flexion_l	hip_adduction_l	hip_rotation_l	knee_angle_l	knee_angle_l_beta	ankle_angle_l	subtalar_angle_l	mtp_angle_l	L5_S1_Flex_Ext	L5_S1_Lat_Bending	L5_S1_axial_rotation	L4_L5_Flex_Ext	L4_L5_Lat_Bending	L4_L5_axial_rotation	L3_L4_Flex_Ext	L3_L4_Lat_Bending	L3_L4_axial_rotation	L2_L3_Flex_Ext	L2_L3_Lat_Bending	L2_L3_axial_rotation	L1_L2_Flex_Ext	L1_L2_Lat_Bending	L1_L2_axial_rotation	L1_T12_Flex_Ext	L1_T12_Lat_Bending	L1_T12_axial_rotation	Abs_r3	Abs_r2	Abs_r1	Abs_t1	Abs_t2	neck_flexion	neck_bending	neck_rotation	arm_flex_r	arm_add_r	arm_rot_r	elbow_flex_r	pro_sup_r	wrist_flex_r	wrist_dev_r	arm_flex_l	arm_add_l	arm_rot_l	elbow_flex_l	pro_sup_l	wrist_flex_l	wrist_dev_l
2.839286	0.907419	-5.458525	92.700539	0.190852	0.988493	0.464269	-4.054877	2.595792	-0.015600	0.369871	0.006455	29.253348	-5.020895	0.000000	-4.310985	-3.322593	-10.426042	2.401764	0.041919	23.543501	-3.824061	0.000000	-0.010961	0.229722	0.455771	-0.020355	0.305530	0.484257	-0.018007	0.558546	0.484257	-0.012527	0.558546	0.398800	-0.010178	0.468449	0.370314	-0.006263	0.355839	0.341828	-0.078291	2.598660	2.534862	0.000000	0.000000	6.390561	9.670677	-9.553569	-5.680692	-21.627347	26.356585	92.330707	89.018156	27.127405	15.433416	17.543725	-18.946387	63.895431	72.951542	84.387720	6.113063	-7.359022
2.857143	0.775251	-5.550914	92.732338	0.190869	0.987862	0.464405	-3.969815	2.453786	-0.145622	0.345944	0.006038	29.416610	-4.885800	0.000000	-4.177274	-3.208747	-10.379612	2.445470	0.042682	23.747983	-3.613164	0.000000	-0.006887	0.213827	0.478533	-0.012789	0.284389	0.508441	-0.011314	0.519898	0.508441	-0.007871	0.519898	0.418716	-0.006395	0.436035	0.388808	-0.003935	0.331217	0.358900	-0.049191	2.418849	2.661456	0.000000	0.000000	5.407238	9.568772	-9.940872	-6.120473	-21.243231	25.993779	92.232864	88.858344	26.457432	15.821142	17.242789	-18.921888	62.972595	73.173884	85.228356	7.751050	-7.600788
2.875000	0.665494	-5.615971	92.730200	0.190952	0.987237	0.464524	-3.911260	2.338605	-0.200254	0.323585	0.005648	29.581016	-4.800960	0.000000	-4.090645	-3.116702	-10.325101	2.454287	0.042835	23.965175	-3.382009	0.000000	-0.005493	0.199671	0.498778	-0.010202	0.265563	0.529951	-0.009025	0.485481	0.529951	-0.006278	0.485481	0.436431	-0.005101	0.407170	0.405257	-0.003139	0.309291	0.374083	-0.039238	2.258722	2.774053	0.000000	0.000000	4.609772	9.548671	-10.271780	-6.532150	-20.746281	25.529729	92.002775	88.698827	25.960699	16.355957	16.938005	-18.847552	62.174909	73.271639	85.436506	8.757083	-7.794684
2.892857	0.575026	-5.666668	92.702271	0.191064	0.986657	0.464595	-3.869506	2.246176	-0.208601	0.303322	0.005294	29.727899	-4.761488	0.000000	-4.037721	-3.039449	-10.281158	2.433609	0.042474	24.156074	-3.146580	0.000000	-0.003799	0.187252	0.517658	-0.007056	0.249045	0.550012	-0.006242	0.455285	0.550012	-0.004342	0.455285	0.452951	-0.003528	0.381844	0.420597	-0.002171	0.290053	0.388244	-0.027139	2.118233	2.879059	0.000000	0.000000	4.021588	9.596049	-10.537409	-6.910407	-20.170736	24.990898	91.657655	88.553424	25.585725	17.044943	16.647020	-18.729981	61.550911	73.239217	85.056478	9.212893	-7.959320
2.910714	0.497389	-5.708101	92.665180	0.191159	0.986165	0.464633	-3.839793	2.168617	-0.202556	0.285681	0.004986	29.838218	-4.758455	0.000000	-4.007977	-2.969263	-10.281823	2.391692	0.041743	24.299361	-2.883036	0.000000	-0.000835	0.176306	0.532920	-0.001550	0.234488	0.566227	-0.001371	0.428672	0.566227	-0.000954	0.428672	0.466305	-0.000775	0.359524	0.432997	-0.000477	0.273099	0.399690	-0.005962	1.994414	2.963939	0.000000	0.000000	3.669706	9.697037	-10.724314	-7.197201	-19.524065	24.363637	91.218805	88.434902	25.601903	18.209716	16.397405	-18.579821	61.155375	73.065659	84.122354	9.195998	-8.183134
2.928571	0.446987	-5.732873	92.593194	0.191226	0.985801	0.464621	-3.828941	2.115870	-0.223676	0.273447	0.004773	29.902901	-4.714030	0.000000	-4.014548	-2.915260	-10.367965	2.333038	0.040719	24.385495	-2.610951	0.000000	0.002875	0.169102	0.548981	0.005339	0.224906	0.583293	0.004723	0.411155	0.583293	0.003286	0.411155	0.480359	0.002670	0.344833	0.446047	0.001643	0.261939	0.411736	0.020536	1.912917	3.053270	0.000000	0.000000	3.588496	9.822173	-10.854647	-7.349380	-18.899057	23.714113	90.729440	88.349083	25.998313	19.821530	16.154469	-18.395458	60.883993	72.811295	82.933918	8.811182	-8.270070
2.946429	0.429134	-5.728379	92.501658	0.191218	0.985591	0.464527	-3.854265	2.093515	-0.232692	0.264325	0.004613	29.903046	-4.708541	0.000000	-4.071931	-2.880401	-10.513308	2.254045	0.039341	24.393213	-2.391768	0.000000	0.006209	0.166690	0.560344	0.011531	0.221697	0.595365	0.010201	0.405289	0.595365	0.007096	0.405289	0.490301	0.005766	0.339913	0.455279	0.003548	0.258202	0.420258	0.044351	1.885625	3.116465	0.000000	0.000000	3.784640	9.996645	-10.895985	-7.371249	-18.346374	23.088534	90.207880	88.295980	26.605489	21.578091	15.905095	-18.186923	60.766926	72.510075	81.425958	7.863886	-8.333893
2.964286	0.439960	-5.699524	92.399871	0.191155	0.985542	0.464413	-3.906522	2.098257	-0.268466	0.261367	0.004562	29.843875	-4.700297	0.000000	-4.158252	-2.865327	-10.666704	2.178872	0.038028	24.330331	-2.296674	0.000000	0.010495	0.168542	0.567859	0.019490	0.224160	0.603350	0.017242	0.409792	0.603350	0.011995	0.409792	0.496876	0.009746	0.343690	0.461385	0.005997	0.261071	0.425894	0.074964	1.906577	3.158260	0.000000	0.000000	4.225414	10.177651	-10.867717	-7.216126	-17.926178	22.670034	89.570610	88.280118	26.887353	22.761296	15.789173	-17.972860	60.933171	72.159372	79.857839	6.575023	-8.306848
2.982143	0.474296	-5.637692	92.290132	0.191010	0.985660	0.464244	-4.000283	2.122429	-0.328927	0.262820	0.004587	29.727237	-4.697569	0.000000	-4.285073	-2.864196	-10.880368	2.104725	0.036734	24.231087	-2.247847	0.000000	0.013633	0.173961	0.578004	0.025318	0.231368	0.614129	0.022398	0.422968	0.614129	0.015581	0.422968	0.505753	0.012660	0.354741	0.469628	0.007790	0.269465	0.433503	0.097381	1.967879	3.214684	0.000000	0.000000	4.914487	10.363055	-10.854347	-6.973513	-17.638602	22.454511	88.807436	88.302427	26.385048	22.814490	15.759150	-17.691802	61.140352	71.718174	78.506375	5.602150	-7.978279
3.000000	0.535781	-5.544537	92.182135	0.190781	0.985918	0.464010	-4.136882	2.168971	-0.458015	0.268420	0.004685	29.572745	-4.636758	0.000000	-4.452650	-2.880061	-11.037245	2.021570	0.035283	24.089994	-2.388909	0.000000	0.015289	0.184176	0.588378	0.028394	0.244954	0.625151	0.025119	0.447805	0.625151	0.017474	0.447805	0.514830	0.014198	0.375572	0.478057	0.008736	0.285288	0.441283	0.109211	2.083435	3.272379	0.000000	0.000000	5.790835	10.531293	-10.792942	-6.676843	-17.463891	22.414523	87.958287	88.361160	25.194917	21.804731	15.852126	-17.355460	61.532729	71.211212	77.022140	4.673904	-7.369789
3.017857	0.599129	-5.441425	92.095807	0.190499	0.986274	0.463732	-4.294902	2.215858	-0.661281	0.279057	0.004870	29.388406	-4.541677	0.000000	-4.624829	-2.893664	-11.139686	1.949528	0.034026	23.927515	-2.666830	0.000000	0.018223	0.195696	0.604404	0.033842	0.260276	0.642179	0.029939	0.475815	0.642179	0.020827	0.475815	0.528854	0.016922	0.399063	0.491078	0.010413	0.303133	0.453303	0.130165	2.213752	3.361514	0.000000	0.000000	6.743177	10.638012	-10.727832	-6.447004	-17.371150	22.459137	87.087965	88.454748	23.345419	19.739836	16.109383	-16.963183	62.203641	70.623803	75.140287	3.884361	-6.376085
3.035714	0.672614	-5.328164	92.033182	0.190159	0.986690	0.463396	-4.475794	2.271233	-0.887888	0.293165	0.005117	29.175958	-4.465295	0.000000	-4.806229	-2.914807	-11.166643	1.882268	0.032852	23.750520	-3.073953	0.000000	0.020743	0.209652	0.627292	0.038522	0.278837	0.666497	0.034079	0.509748	0.666497	0.023707	0.509748	0.548880	0.019262	0.427523	0.509674	0.011853	0.324751	0.470469	0.148166	2.371628	3.488808	0.000000	0.000000	7.743590	10.687450	-10.664929	-6.365234	-17.357098	22.474647	86.297964	88.579196	21.084317	16.881614	16.411735	-16.476596	62.842583	69.904991	73.328184	3.734816	-5.080346
3.053571	0.743601	-5.224109	92.002114	0.189803	0.987122	0.463026	-4.655853	2.325290	-1.130816	0.309746	0.005406	28.954591	-4.411072	0.000000	-4.972139	-2.934831	-11.082315	1.822305	0.031805	23.546499	-3.610774	0.000000	0.024364	0.223662	0.656093	0.045246	0.297471	0.697099	0.040027	0.543812	0.697099	0.027845	0.543812	0.574082	0.022624	0.456092	0.533076	0.013921	0.346453	0.492070	0.174028	2.530112	3.648993	0.000000	0.000000	8.735020	10.670673	-10.636332	-6.475041	-17.407662	22.376033	85.633863	88.727308	18.586398	13.456689	16.691410	-15.951821	63.358852	69.122503	72.007810	4.042861	-3.594213
3.071429	0.804387	-5.123766	92.018848	0.189466	0.987559	0.462625	-4.839204	2.375982	-1.387128	0.327210	0.005711	28.743450	-4.378467	0.000000	-5.124414	-2.951713	-10.838091	1.772864	0.030942	23.318833	-4.279493	0.000000	0.027621	0.236049	0.685076	0.051295	0.313945	0.727893	0.045379	0.573930	0.727893	0.031568	0.573930	0.599442	0.025649	0.481351	0.556624	0.015783	0.365640	0.513807	0.197294	2.670235	3.810187	0.000000	0.000000	9.669317	10.621334	-10.614175	-6.790612	-17.511642	22.077184	85.121498	88.890988	15.985446	9.697882	16.875007	-15.454731	63.591444	68.333463	71.270286	4.826379	-1.895202
3.089286	0.839894	-5.041973	92.084540	0.189169	0.987972	0.462223	-5.002973	2.408425	-1.660951	0.347563	0.006066	28.561782	-4.345099	0.000000	-5.245816	-2.953032	-10.450116	1.731594	0.030222	23.074874	-5.003788	0.000000	0.032880	0.244205	0.714420	0.061062	0.324792	0.759072	0.054019	0.593760	0.759072	0.037579	0.593760	0.625118	0.030532	0.497983	0.580467	0.018788	0.378273	0.535815	0.234859	2.762494	3.973392	0.000000	0.000000	10.511480	10.531077	-10.647412	-7.323938	-17.644393	21.448188	84.781699	89.060068	13.478745	5.959247	16.939999	-15.051401	63.517510	67.551921	71.172234	5.906129	-0.133392
3.107143	0.854913	-4.971168	92.203570	0.188930	0.988352	0.461915	-5.143754	2.430212	-1.951070	0.373239	0.006514	28.425340	-4.294020	0.000000	-5.333242	-2.948544	-9.929581	1.704563	0.029750	22.841334	-5.734269	0.000000	0.039113	0.248252	0.740858	0.072637	0.330175	0.787162	0.064259	0.603599	0.787162	0.044702	0.603599	0.648251	0.036321	0.506235	0.601948	0.022349	0.384542	0.555644	0.279382	2.808271	4.120433	0.000000	0.000000	11.248262	10.405230	-10.747710	-8.006533	-17.814708	20.455621	84.597859	89.216203	11.163423	2.578315	16.940112	-14.791531	63.242193	66.735552	71.734276	6.936287	1.451918
